<mxfile host="app.diagrams.net" modified="2023-12-04T20:13:17.783Z" agent="Mozilla/5.0 (Windows NT 10.0; Win64; x64) AppleWebKit/537.36 (KHTML, like Gecko) Chrome/119.0.0.0 Safari/537.36" etag="gFDerI2oUOnEKdmV4qEE" version="22.1.5" type="device">
  <diagram name="Page-1" id="7e0a89b8-554c-2b80-1dc8-d5c74ca68de4">
    <mxGraphModel dx="819" dy="429" grid="1" gridSize="10" guides="1" tooltips="1" connect="1" arrows="1" fold="1" page="1" pageScale="1" pageWidth="1100" pageHeight="850" background="none" math="1" shadow="0">
      <root>
        <mxCell id="0" />
        <mxCell id="1" parent="0" />
        <mxCell id="XIqC5FC4mVJbqVSxe_GK-42" style="edgeStyle=orthogonalEdgeStyle;rounded=0;orthogonalLoop=1;jettySize=auto;html=1;exitX=0;exitY=0.25;exitDx=0;exitDy=0;exitPerimeter=0;entryX=1;entryY=0.5;entryDx=0;entryDy=0;entryPerimeter=0;endArrow=none;endFill=0;strokeWidth=3;" parent="1" source="XIqC5FC4mVJbqVSxe_GK-121" edge="1">
          <mxGeometry relative="1" as="geometry">
            <mxPoint x="580" y="310" as="targetPoint" />
            <Array as="points">
              <mxPoint x="320" y="310" />
            </Array>
          </mxGeometry>
        </mxCell>
        <mxCell id="XIqC5FC4mVJbqVSxe_GK-1" value="&lt;p style=&quot;line-height: 120%;&quot;&gt;&lt;br&gt;&lt;/p&gt;" style="pointerEvents=1;verticalLabelPosition=bottom;shadow=0;dashed=0;align=left;html=1;verticalAlign=top;shape=mxgraph.electrical.resistors.potentiometer_2;direction=north;strokeWidth=3;" parent="1" vertex="1">
          <mxGeometry x="310" y="160" width="40" height="100" as="geometry" />
        </mxCell>
        <mxCell id="XIqC5FC4mVJbqVSxe_GK-2" value="" style="pointerEvents=1;verticalLabelPosition=bottom;shadow=0;dashed=0;align=center;html=1;verticalAlign=top;shape=mxgraph.electrical.capacitors.capacitor_1;strokeWidth=3;" parent="1" vertex="1">
          <mxGeometry x="340" y="195" width="60" height="30" as="geometry" />
        </mxCell>
        <mxCell id="XIqC5FC4mVJbqVSxe_GK-3" value="" style="pointerEvents=1;verticalLabelPosition=bottom;shadow=0;dashed=0;align=center;html=1;verticalAlign=top;shape=mxgraph.electrical.inductors.inductor_3;strokeWidth=3;" parent="1" vertex="1">
          <mxGeometry x="389" y="202" width="100" height="8" as="geometry" />
        </mxCell>
        <mxCell id="XIqC5FC4mVJbqVSxe_GK-10" style="edgeStyle=orthogonalEdgeStyle;rounded=0;orthogonalLoop=1;jettySize=auto;html=1;exitX=1;exitY=0.5;exitDx=0;exitDy=0;exitPerimeter=0;entryX=1.051;entryY=0.5;entryDx=0;entryDy=0;entryPerimeter=0;endArrow=none;endFill=0;strokeWidth=3;" parent="1" source="XIqC5FC4mVJbqVSxe_GK-2" target="XIqC5FC4mVJbqVSxe_GK-2" edge="1">
          <mxGeometry relative="1" as="geometry" />
        </mxCell>
        <mxCell id="XIqC5FC4mVJbqVSxe_GK-12" style="edgeStyle=orthogonalEdgeStyle;rounded=0;orthogonalLoop=1;jettySize=auto;html=1;exitX=1;exitY=1;exitDx=0;exitDy=0;exitPerimeter=0;entryX=1.024;entryY=0.995;entryDx=0;entryDy=0;entryPerimeter=0;endArrow=none;endFill=0;strokeWidth=3;" parent="1" source="XIqC5FC4mVJbqVSxe_GK-3" target="XIqC5FC4mVJbqVSxe_GK-3" edge="1">
          <mxGeometry relative="1" as="geometry" />
        </mxCell>
        <mxCell id="XIqC5FC4mVJbqVSxe_GK-14" style="edgeStyle=orthogonalEdgeStyle;rounded=0;orthogonalLoop=1;jettySize=auto;html=1;exitX=1;exitY=1;exitDx=0;exitDy=0;exitPerimeter=0;entryX=1.015;entryY=1;entryDx=0;entryDy=0;entryPerimeter=0;endArrow=none;endFill=0;strokeWidth=3;" parent="1" source="XIqC5FC4mVJbqVSxe_GK-3" target="XIqC5FC4mVJbqVSxe_GK-3" edge="1">
          <mxGeometry relative="1" as="geometry" />
        </mxCell>
        <mxCell id="XIqC5FC4mVJbqVSxe_GK-22" style="edgeStyle=orthogonalEdgeStyle;rounded=0;orthogonalLoop=1;jettySize=auto;html=1;exitX=0;exitY=0.5;exitDx=0;exitDy=0;exitPerimeter=0;endArrow=none;endFill=0;strokeWidth=3;" parent="1" source="XIqC5FC4mVJbqVSxe_GK-20" edge="1">
          <mxGeometry relative="1" as="geometry">
            <mxPoint x="579.9444444444445" y="310" as="targetPoint" />
          </mxGeometry>
        </mxCell>
        <mxCell id="XIqC5FC4mVJbqVSxe_GK-43" style="edgeStyle=orthogonalEdgeStyle;rounded=0;orthogonalLoop=1;jettySize=auto;html=1;exitX=1;exitY=0.5;exitDx=0;exitDy=0;exitPerimeter=0;endArrow=none;endFill=0;strokeWidth=3;" parent="1" source="XIqC5FC4mVJbqVSxe_GK-127" edge="1">
          <mxGeometry relative="1" as="geometry">
            <Array as="points">
              <mxPoint x="500" y="410" />
              <mxPoint x="500" y="410" />
            </Array>
            <mxPoint x="500" y="410" as="targetPoint" />
          </mxGeometry>
        </mxCell>
        <mxCell id="XIqC5FC4mVJbqVSxe_GK-20" value="" style="pointerEvents=1;verticalLabelPosition=bottom;shadow=0;dashed=0;align=center;html=1;verticalAlign=top;shape=mxgraph.electrical.capacitors.capacitor_1;direction=south;strokeWidth=3;" parent="1" vertex="1">
          <mxGeometry x="565" y="330" width="30" height="60" as="geometry" />
        </mxCell>
        <mxCell id="XIqC5FC4mVJbqVSxe_GK-26" style="edgeStyle=orthogonalEdgeStyle;rounded=0;orthogonalLoop=1;jettySize=auto;html=1;exitX=1;exitY=0.25;exitDx=0;exitDy=0;exitPerimeter=0;endArrow=none;endFill=0;strokeWidth=3;" parent="1" source="XIqC5FC4mVJbqVSxe_GK-25" edge="1">
          <mxGeometry relative="1" as="geometry">
            <mxPoint x="320.0232558139535" y="395" as="targetPoint" />
          </mxGeometry>
        </mxCell>
        <mxCell id="XIqC5FC4mVJbqVSxe_GK-53" style="edgeStyle=orthogonalEdgeStyle;rounded=0;orthogonalLoop=1;jettySize=auto;html=1;exitX=1;exitY=0.25;exitDx=0;exitDy=0;exitPerimeter=0;endArrow=none;endFill=0;strokeWidth=3;" parent="1" source="XIqC5FC4mVJbqVSxe_GK-25" edge="1">
          <mxGeometry relative="1" as="geometry">
            <mxPoint x="320" y="310" as="targetPoint" />
          </mxGeometry>
        </mxCell>
        <mxCell id="XIqC5FC4mVJbqVSxe_GK-25" value="" style="pointerEvents=1;verticalLabelPosition=bottom;shadow=0;dashed=0;align=center;html=1;verticalAlign=top;shape=mxgraph.electrical.resistors.potentiometer_2;direction=north;strokeWidth=3;" parent="1" vertex="1">
          <mxGeometry x="310" y="395" width="40" height="100" as="geometry" />
        </mxCell>
        <mxCell id="XIqC5FC4mVJbqVSxe_GK-29" value="" style="pointerEvents=1;verticalLabelPosition=bottom;shadow=0;dashed=0;align=center;html=1;verticalAlign=top;shape=mxgraph.electrical.resistors.resistor_2;direction=south;strokeWidth=3;" parent="1" vertex="1">
          <mxGeometry x="410" y="445" width="20" height="100" as="geometry" />
        </mxCell>
        <mxCell id="XIqC5FC4mVJbqVSxe_GK-32" value="" style="pointerEvents=1;verticalLabelPosition=bottom;shadow=0;dashed=0;align=center;html=1;verticalAlign=top;shape=mxgraph.electrical.resistors.resistor_2;direction=south;strokeWidth=3;" parent="1" vertex="1">
          <mxGeometry x="530" y="410" width="20" height="100" as="geometry" />
        </mxCell>
        <mxCell id="XIqC5FC4mVJbqVSxe_GK-45" style="edgeStyle=orthogonalEdgeStyle;rounded=0;orthogonalLoop=1;jettySize=auto;html=1;exitX=1;exitY=0.5;exitDx=0;exitDy=0;exitPerimeter=0;endArrow=none;endFill=0;strokeWidth=3;entryX=1.187;entryY=0.526;entryDx=0;entryDy=0;entryPerimeter=0;" parent="1" source="XIqC5FC4mVJbqVSxe_GK-33" target="XIqC5FC4mVJbqVSxe_GK-131" edge="1">
          <mxGeometry relative="1" as="geometry">
            <mxPoint x="380" y="560" as="targetPoint" />
            <Array as="points">
              <mxPoint x="370" y="610" />
              <mxPoint x="370" y="545" />
            </Array>
          </mxGeometry>
        </mxCell>
        <mxCell id="XIqC5FC4mVJbqVSxe_GK-75" style="edgeStyle=orthogonalEdgeStyle;rounded=0;orthogonalLoop=1;jettySize=auto;html=1;exitX=0;exitY=0.5;exitDx=0;exitDy=0;exitPerimeter=0;entryX=0.1;entryY=0.5;entryDx=0;entryDy=0;entryPerimeter=0;endArrow=none;endFill=0;strokeWidth=3;" parent="1" source="XIqC5FC4mVJbqVSxe_GK-33" target="XIqC5FC4mVJbqVSxe_GK-69" edge="1">
          <mxGeometry relative="1" as="geometry" />
        </mxCell>
        <mxCell id="XIqC5FC4mVJbqVSxe_GK-33" value="" style="pointerEvents=1;verticalLabelPosition=bottom;shadow=0;dashed=0;align=center;html=1;verticalAlign=top;shape=mxgraph.electrical.resistors.resistor_2;direction=south;strokeWidth=3;" parent="1" vertex="1">
          <mxGeometry x="530" y="510" width="20" height="100" as="geometry" />
        </mxCell>
        <mxCell id="XIqC5FC4mVJbqVSxe_GK-137" style="edgeStyle=orthogonalEdgeStyle;rounded=0;orthogonalLoop=1;jettySize=auto;html=1;exitX=0;exitY=0.5;exitDx=0;exitDy=0;exitPerimeter=0;entryX=0.5;entryY=1;entryDx=0;entryDy=0;endArrow=none;endFill=0;strokeWidth=3;" parent="1" source="XIqC5FC4mVJbqVSxe_GK-46" target="XIqC5FC4mVJbqVSxe_GK-135" edge="1">
          <mxGeometry relative="1" as="geometry" />
        </mxCell>
        <mxCell id="XIqC5FC4mVJbqVSxe_GK-46" value="" style="pointerEvents=1;verticalLabelPosition=bottom;shadow=0;dashed=0;align=center;html=1;verticalAlign=top;shape=mxgraph.electrical.capacitors.capacitor_1;direction=south;strokeWidth=3;" parent="1" vertex="1">
          <mxGeometry x="525" y="630" width="30" height="60" as="geometry" />
        </mxCell>
        <mxCell id="XIqC5FC4mVJbqVSxe_GK-52" style="edgeStyle=orthogonalEdgeStyle;rounded=0;orthogonalLoop=1;jettySize=auto;html=1;exitX=0.5;exitY=0;exitDx=0;exitDy=0;exitPerimeter=0;entryX=1;entryY=0.5;entryDx=0;entryDy=0;entryPerimeter=0;endArrow=none;endFill=0;strokeWidth=3;" parent="1" target="XIqC5FC4mVJbqVSxe_GK-46" edge="1">
          <mxGeometry relative="1" as="geometry">
            <mxPoint x="540" y="710" as="sourcePoint" />
          </mxGeometry>
        </mxCell>
        <mxCell id="XIqC5FC4mVJbqVSxe_GK-69" value="" style="verticalLabelPosition=bottom;shadow=0;dashed=0;align=center;html=1;verticalAlign=top;shape=mxgraph.electrical.logic_gates.inverting_contact;strokeWidth=3;" parent="1" vertex="1">
          <mxGeometry x="570" y="505" width="10" height="10" as="geometry" />
        </mxCell>
        <mxCell id="XIqC5FC4mVJbqVSxe_GK-89" value="" style="edgeStyle=orthogonalEdgeStyle;rounded=0;orthogonalLoop=1;jettySize=auto;html=1;exitX=0;exitY=0.25;exitDx=0;exitDy=0;exitPerimeter=0;entryX=1;entryY=0.5;entryDx=0;entryDy=0;entryPerimeter=0;endArrow=none;endFill=0;strokeWidth=3;" parent="1" source="XIqC5FC4mVJbqVSxe_GK-25" edge="1">
          <mxGeometry relative="1" as="geometry">
            <mxPoint x="320" y="495" as="sourcePoint" />
            <mxPoint x="375" y="545" as="targetPoint" />
            <Array as="points">
              <mxPoint x="320" y="545" />
            </Array>
          </mxGeometry>
        </mxCell>
        <mxCell id="XIqC5FC4mVJbqVSxe_GK-93" value="" style="edgeStyle=orthogonalEdgeStyle;rounded=0;orthogonalLoop=1;jettySize=auto;html=1;exitX=1;exitY=0.5;exitDx=0;exitDy=0;exitPerimeter=0;entryX=0;entryY=0.5;entryDx=0;entryDy=0;entryPerimeter=0;endArrow=none;endFill=0;strokeWidth=3;" parent="1" source="XIqC5FC4mVJbqVSxe_GK-135" edge="1">
          <mxGeometry relative="1" as="geometry">
            <mxPoint x="540" y="610" as="sourcePoint" />
            <mxPoint x="535" y="610" as="targetPoint" />
          </mxGeometry>
        </mxCell>
        <mxCell id="XIqC5FC4mVJbqVSxe_GK-100" value="&lt;font style=&quot;font-size: 20px;&quot;&gt;$$R_{bHi}$$&lt;/font&gt;" style="text;html=1;strokeColor=none;fillColor=none;align=center;verticalAlign=middle;whiteSpace=wrap;rounded=0;strokeWidth=8;" parent="1" vertex="1">
          <mxGeometry x="259" y="240" width="60" height="30" as="geometry" />
        </mxCell>
        <mxCell id="XIqC5FC4mVJbqVSxe_GK-101" value="&lt;font style=&quot;font-size: 20px;&quot;&gt;$$C_{1}$$&lt;/font&gt;" style="text;html=1;strokeColor=none;fillColor=none;align=center;verticalAlign=middle;whiteSpace=wrap;rounded=0;strokeWidth=3;" parent="1" vertex="1">
          <mxGeometry x="340" y="150" width="60" height="30" as="geometry" />
        </mxCell>
        <mxCell id="XIqC5FC4mVJbqVSxe_GK-102" value="&lt;font style=&quot;font-size: 20px;&quot;&gt;$$L_{1}$$&lt;/font&gt;" style="text;html=1;strokeColor=none;fillColor=none;align=center;verticalAlign=middle;whiteSpace=wrap;rounded=0;strokeWidth=3;" parent="1" vertex="1">
          <mxGeometry x="409" y="150" width="60" height="30" as="geometry" />
        </mxCell>
        <mxCell id="XIqC5FC4mVJbqVSxe_GK-103" value="&lt;font style=&quot;font-size: 20px;&quot;&gt;$$R_{bHiQ}$$&lt;/font&gt;" style="text;html=1;strokeColor=none;fillColor=none;align=center;verticalAlign=middle;whiteSpace=wrap;rounded=0;strokeWidth=3;" parent="1" vertex="1">
          <mxGeometry x="500" y="150" width="60" height="30" as="geometry" />
        </mxCell>
        <mxCell id="XIqC5FC4mVJbqVSxe_GK-106" value="&lt;font style=&quot;font-size: 20px;&quot;&gt;$$C_{cLo}$$&lt;/font&gt;" style="text;html=1;strokeColor=none;fillColor=none;align=center;verticalAlign=middle;whiteSpace=wrap;rounded=0;strokeWidth=3;" parent="1" vertex="1">
          <mxGeometry x="585" y="320" width="60" height="30" as="geometry" />
        </mxCell>
        <mxCell id="XIqC5FC4mVJbqVSxe_GK-107" value="&lt;font style=&quot;font-size: 20px;&quot;&gt;$$R_{cLo}$$&lt;/font&gt;" style="text;html=1;strokeColor=none;fillColor=none;align=center;verticalAlign=middle;whiteSpace=wrap;rounded=0;strokeWidth=3;" parent="1" vertex="1">
          <mxGeometry x="429" y="350" width="60" height="30" as="geometry" />
        </mxCell>
        <mxCell id="XIqC5FC4mVJbqVSxe_GK-108" value="&lt;font style=&quot;font-size: 20px;&quot;&gt;$$R_{1}$$&lt;/font&gt;" style="text;html=1;strokeColor=none;fillColor=none;align=center;verticalAlign=middle;whiteSpace=wrap;rounded=0;strokeWidth=3;" parent="1" vertex="1">
          <mxGeometry x="420" y="480" width="60" height="30" as="geometry" />
        </mxCell>
        <mxCell id="XIqC5FC4mVJbqVSxe_GK-109" value="&lt;font style=&quot;font-size: 20px;&quot;&gt;$$R_{cHi}$$&lt;/font&gt;" style="text;html=1;strokeColor=none;fillColor=none;align=center;verticalAlign=middle;whiteSpace=wrap;rounded=0;strokeWidth=3;" parent="1" vertex="1">
          <mxGeometry x="259" y="385" width="60" height="30" as="geometry" />
        </mxCell>
        <mxCell id="XIqC5FC4mVJbqVSxe_GK-110" value="&lt;font style=&quot;font-size: 20px;&quot;&gt;$$C_{cHi}$$&lt;/font&gt;" style="text;html=1;strokeColor=none;fillColor=none;align=center;verticalAlign=middle;whiteSpace=wrap;rounded=0;strokeWidth=3;" parent="1" vertex="1">
          <mxGeometry x="340" y="395" width="60" height="30" as="geometry" />
        </mxCell>
        <mxCell id="XIqC5FC4mVJbqVSxe_GK-111" value="&lt;font style=&quot;font-size: 20px;&quot;&gt;$$R_{2}$$&lt;/font&gt;" style="text;html=1;strokeColor=none;fillColor=none;align=center;verticalAlign=middle;whiteSpace=wrap;rounded=0;strokeWidth=3;" parent="1" vertex="1">
          <mxGeometry x="545" y="445" width="60" height="30" as="geometry" />
        </mxCell>
        <mxCell id="XIqC5FC4mVJbqVSxe_GK-112" value="&lt;font style=&quot;font-size: 20px;&quot;&gt;$$R_{3}$$&lt;/font&gt;" style="text;html=1;strokeColor=none;fillColor=none;align=center;verticalAlign=middle;whiteSpace=wrap;rounded=0;strokeWidth=3;" parent="1" vertex="1">
          <mxGeometry x="545" y="545" width="60" height="30" as="geometry" />
        </mxCell>
        <mxCell id="XIqC5FC4mVJbqVSxe_GK-113" value="&lt;font style=&quot;font-size: 20px;&quot;&gt;$$C_{bLo}$$&lt;/font&gt;" style="text;html=1;strokeColor=none;fillColor=none;align=center;verticalAlign=middle;whiteSpace=wrap;rounded=0;strokeWidth=3;" parent="1" vertex="1">
          <mxGeometry x="466" y="630" width="60" height="30" as="geometry" />
        </mxCell>
        <mxCell id="XIqC5FC4mVJbqVSxe_GK-115" value="&lt;font style=&quot;font-size: 24px;&quot;&gt;$$v_{out}$$&lt;/font&gt;" style="text;html=1;strokeColor=none;fillColor=none;align=center;verticalAlign=middle;whiteSpace=wrap;rounded=0;strokeWidth=3;" parent="1" vertex="1">
          <mxGeometry x="578" y="495" width="60" height="30" as="geometry" />
        </mxCell>
        <mxCell id="XIqC5FC4mVJbqVSxe_GK-120" style="edgeStyle=orthogonalEdgeStyle;rounded=0;orthogonalLoop=1;jettySize=auto;html=1;endArrow=none;endFill=0;strokeWidth=3;exitX=0.974;exitY=0.25;exitDx=0;exitDy=0;exitPerimeter=0;" parent="1" source="XIqC5FC4mVJbqVSxe_GK-1" edge="1">
          <mxGeometry relative="1" as="geometry">
            <mxPoint x="220" y="170" as="targetPoint" />
            <mxPoint x="320" y="160" as="sourcePoint" />
            <Array as="points">
              <mxPoint x="320" y="160" />
            </Array>
          </mxGeometry>
        </mxCell>
        <mxCell id="XIqC5FC4mVJbqVSxe_GK-122" value="" style="edgeStyle=orthogonalEdgeStyle;rounded=0;orthogonalLoop=1;jettySize=auto;html=1;exitX=0;exitY=0.25;exitDx=0;exitDy=0;exitPerimeter=0;entryX=1;entryY=0.5;entryDx=0;entryDy=0;entryPerimeter=0;endArrow=none;endFill=0;strokeWidth=3;" parent="1" source="XIqC5FC4mVJbqVSxe_GK-1" target="XIqC5FC4mVJbqVSxe_GK-121" edge="1">
          <mxGeometry relative="1" as="geometry">
            <mxPoint x="320" y="260" as="sourcePoint" />
            <mxPoint x="580" y="310" as="targetPoint" />
            <Array as="points">
              <mxPoint x="320" y="310" />
            </Array>
          </mxGeometry>
        </mxCell>
        <mxCell id="XIqC5FC4mVJbqVSxe_GK-121" value="" style="verticalLabelPosition=bottom;shadow=0;dashed=0;align=center;html=1;verticalAlign=top;strokeWidth=3;shape=ellipse;fillColor=#0;" parent="1" vertex="1">
          <mxGeometry x="317.5" y="307.5" width="5" height="5" as="geometry" />
        </mxCell>
        <mxCell id="XIqC5FC4mVJbqVSxe_GK-123" value="" style="verticalLabelPosition=bottom;shadow=0;dashed=0;align=center;html=1;verticalAlign=top;strokeWidth=3;shape=ellipse;fillColor=#0;" parent="1" vertex="1">
          <mxGeometry x="498.5" y="307.5" width="5" height="5" as="geometry" />
        </mxCell>
        <mxCell id="XIqC5FC4mVJbqVSxe_GK-126" value="" style="verticalLabelPosition=bottom;shadow=0;dashed=0;align=center;html=1;verticalAlign=top;strokeWidth=3;shape=ellipse;fillColor=#0;" parent="1" vertex="1">
          <mxGeometry x="577.5" y="307.5" width="5" height="5" as="geometry" />
        </mxCell>
        <mxCell id="XIqC5FC4mVJbqVSxe_GK-130" value="" style="edgeStyle=orthogonalEdgeStyle;rounded=0;orthogonalLoop=1;jettySize=auto;html=1;exitX=1;exitY=0.5;exitDx=0;exitDy=0;exitPerimeter=0;entryX=0;entryY=0.5;entryDx=0;entryDy=0;entryPerimeter=0;endArrow=none;endFill=0;strokeWidth=3;" parent="1" source="XIqC5FC4mVJbqVSxe_GK-20" target="XIqC5FC4mVJbqVSxe_GK-127" edge="1">
          <mxGeometry relative="1" as="geometry">
            <mxPoint x="580" y="390" as="sourcePoint" />
            <mxPoint x="501" y="410" as="targetPoint" />
            <Array as="points">
              <mxPoint x="580" y="410" />
            </Array>
          </mxGeometry>
        </mxCell>
        <mxCell id="XIqC5FC4mVJbqVSxe_GK-127" value="" style="verticalLabelPosition=bottom;shadow=0;dashed=0;align=center;html=1;verticalAlign=top;strokeWidth=3;shape=ellipse;fillColor=#0;" parent="1" vertex="1">
          <mxGeometry x="537.5" y="407.5" width="5" height="5" as="geometry" />
        </mxCell>
        <mxCell id="XIqC5FC4mVJbqVSxe_GK-131" value="" style="verticalLabelPosition=bottom;shadow=0;dashed=0;align=center;html=1;verticalAlign=top;strokeWidth=3;shape=ellipse;fillColor=#0;" parent="1" vertex="1">
          <mxGeometry x="367.5" y="542.5" width="5" height="5" as="geometry" />
        </mxCell>
        <mxCell id="XIqC5FC4mVJbqVSxe_GK-134" value="" style="verticalLabelPosition=bottom;shadow=0;dashed=0;align=center;html=1;verticalAlign=top;strokeWidth=3;shape=ellipse;fillColor=#0;" parent="1" vertex="1">
          <mxGeometry x="367.5" y="607.5" width="5" height="5" as="geometry" />
        </mxCell>
        <mxCell id="XIqC5FC4mVJbqVSxe_GK-136" value="" style="edgeStyle=orthogonalEdgeStyle;rounded=0;orthogonalLoop=1;jettySize=auto;html=1;exitX=1;exitY=0.5;exitDx=0;exitDy=0;exitPerimeter=0;entryX=0;entryY=0.5;entryDx=0;entryDy=0;entryPerimeter=0;endArrow=none;endFill=0;strokeWidth=3;" parent="1" source="XIqC5FC4mVJbqVSxe_GK-33" target="XIqC5FC4mVJbqVSxe_GK-135" edge="1">
          <mxGeometry relative="1" as="geometry">
            <mxPoint x="540" y="610" as="sourcePoint" />
            <mxPoint x="535" y="610" as="targetPoint" />
          </mxGeometry>
        </mxCell>
        <mxCell id="XIqC5FC4mVJbqVSxe_GK-135" value="" style="verticalLabelPosition=bottom;shadow=0;dashed=0;align=center;html=1;verticalAlign=top;strokeWidth=3;shape=ellipse;fillColor=#0;" parent="1" vertex="1">
          <mxGeometry x="537.5" y="607.5" width="5" height="5" as="geometry" />
        </mxCell>
        <mxCell id="XIqC5FC4mVJbqVSxe_GK-140" style="edgeStyle=orthogonalEdgeStyle;rounded=0;orthogonalLoop=1;jettySize=auto;html=1;exitX=0.5;exitY=1;exitDx=0;exitDy=0;exitPerimeter=0;endArrow=none;endFill=0;strokeWidth=3;" parent="1" edge="1">
          <mxGeometry relative="1" as="geometry">
            <mxPoint x="219.5" y="710" as="targetPoint" />
            <mxPoint x="219.5" y="470" as="sourcePoint" />
          </mxGeometry>
        </mxCell>
        <mxCell id="XIqC5FC4mVJbqVSxe_GK-142" value="&lt;p style=&quot;line-height: 0%;&quot;&gt;&lt;br&gt;&lt;/p&gt;" style="pointerEvents=1;verticalLabelPosition=bottom;shadow=0;dashed=0;align=right;html=1;verticalAlign=top;shape=mxgraph.electrical.signal_sources.source;aspect=fixed;points=[[0.5,0,0],[1,0.5,0],[0.5,1,0],[0,0.5,0]];elSignalType=ac;strokeWidth=3;" parent="1" vertex="1">
          <mxGeometry x="189.5" y="410" width="60" height="60" as="geometry" />
        </mxCell>
        <mxCell id="XIqC5FC4mVJbqVSxe_GK-143" value="&lt;font style=&quot;font-size: 24px;&quot;&gt;$$v_{in}$$&lt;/font&gt;" style="text;html=1;strokeColor=none;fillColor=none;align=center;verticalAlign=middle;whiteSpace=wrap;rounded=0;strokeWidth=3;" parent="1" vertex="1">
          <mxGeometry x="147" y="450" width="60" height="30" as="geometry" />
        </mxCell>
        <mxCell id="XIqC5FC4mVJbqVSxe_GK-144" value="" style="edgeStyle=orthogonalEdgeStyle;rounded=0;orthogonalLoop=1;jettySize=auto;html=1;exitX=0.5;exitY=0;exitDx=0;exitDy=0;exitPerimeter=0;endArrow=none;endFill=0;strokeWidth=3;startArrow=none;startFill=0;" parent="1" edge="1">
          <mxGeometry relative="1" as="geometry">
            <mxPoint x="220" y="160" as="targetPoint" />
            <mxPoint x="219.5" y="410" as="sourcePoint" />
            <Array as="points" />
          </mxGeometry>
        </mxCell>
        <mxCell id="bl5YSiaK4qvB1krXLfQz-1" value="" style="pointerEvents=1;verticalLabelPosition=bottom;shadow=0;dashed=0;align=center;html=1;verticalAlign=top;shape=mxgraph.electrical.resistors.resistor_2;direction=south;strokeWidth=3;" parent="1" vertex="1">
          <mxGeometry x="570" y="210" width="20" height="100" as="geometry" />
        </mxCell>
        <mxCell id="bl5YSiaK4qvB1krXLfQz-2" value="&lt;font style=&quot;font-size: 20px;&quot;&gt;$$R_{4}$$&lt;/font&gt;" style="text;html=1;strokeColor=none;fillColor=none;align=center;verticalAlign=middle;whiteSpace=wrap;rounded=0;strokeWidth=3;" parent="1" vertex="1">
          <mxGeometry x="580" y="245" width="60" height="30" as="geometry" />
        </mxCell>
        <mxCell id="0RtC1_K0uiEAnUkJ36oY-4" value="" style="pointerEvents=1;verticalLabelPosition=bottom;shadow=0;dashed=0;align=center;html=1;verticalAlign=top;shape=mxgraph.electrical.capacitors.capacitor_1;strokeWidth=3;" parent="1" vertex="1">
          <mxGeometry x="340" y="430" width="60" height="30" as="geometry" />
        </mxCell>
        <mxCell id="0RtC1_K0uiEAnUkJ36oY-5" style="edgeStyle=orthogonalEdgeStyle;rounded=0;orthogonalLoop=1;jettySize=auto;html=1;entryX=0.029;entryY=0.496;entryDx=0;entryDy=0;entryPerimeter=0;endArrow=none;endFill=0;strokeWidth=3;" parent="1" source="0RtC1_K0uiEAnUkJ36oY-4" target="XIqC5FC4mVJbqVSxe_GK-29" edge="1">
          <mxGeometry relative="1" as="geometry" />
        </mxCell>
        <mxCell id="0RtC1_K0uiEAnUkJ36oY-6" style="edgeStyle=orthogonalEdgeStyle;rounded=0;orthogonalLoop=1;jettySize=auto;html=1;endArrow=none;endFill=0;strokeWidth=3;entryX=0.917;entryY=0.483;entryDx=0;entryDy=0;entryPerimeter=0;" parent="1" edge="1">
          <mxGeometry relative="1" as="geometry">
            <mxPoint x="420.00000000000006" y="536.7" as="targetPoint" />
            <Array as="points">
              <mxPoint x="419.66" y="545" />
            </Array>
            <mxPoint x="372.16" y="545.0018621973929" as="sourcePoint" />
          </mxGeometry>
        </mxCell>
        <mxCell id="0RtC1_K0uiEAnUkJ36oY-7" value="" style="pointerEvents=1;verticalLabelPosition=bottom;shadow=0;dashed=0;align=center;html=1;verticalAlign=top;shape=mxgraph.electrical.signal_sources.signal_ground;strokeWidth=3;" parent="1" vertex="1">
          <mxGeometry x="525" y="710" width="30" height="30" as="geometry" />
        </mxCell>
        <mxCell id="0RtC1_K0uiEAnUkJ36oY-8" value="" style="pointerEvents=1;verticalLabelPosition=bottom;shadow=0;dashed=0;align=center;html=1;verticalAlign=top;shape=mxgraph.electrical.signal_sources.signal_ground;strokeWidth=3;" parent="1" vertex="1">
          <mxGeometry x="355" y="710" width="30" height="30" as="geometry" />
        </mxCell>
        <mxCell id="0RtC1_K0uiEAnUkJ36oY-9" value="" style="pointerEvents=1;verticalLabelPosition=bottom;shadow=0;dashed=0;align=center;html=1;verticalAlign=top;shape=mxgraph.electrical.signal_sources.signal_ground;strokeWidth=3;" parent="1" vertex="1">
          <mxGeometry x="204.5" y="710" width="30" height="30" as="geometry" />
        </mxCell>
        <mxCell id="3nIxWyWOg-MX9_8f3n_Z-1" value="" style="group" parent="1" vertex="1" connectable="0">
          <mxGeometry x="476" y="310" width="50" height="100" as="geometry" />
        </mxCell>
        <mxCell id="3nIxWyWOg-MX9_8f3n_Z-2" value="" style="pointerEvents=1;verticalLabelPosition=bottom;shadow=0;dashed=0;align=center;html=1;verticalAlign=middle;shape=mxgraph.electrical.resistors.resistor_2;direction=south;strokeWidth=3;" parent="3nIxWyWOg-MX9_8f3n_Z-1" vertex="1">
          <mxGeometry x="15" width="20" height="100" as="geometry" />
        </mxCell>
        <mxCell id="3nIxWyWOg-MX9_8f3n_Z-3" value="" style="endArrow=block;html=1;rounded=0;verticalAlign=middle;strokeWidth=3;endFill=1;" parent="3nIxWyWOg-MX9_8f3n_Z-1" edge="1">
          <mxGeometry width="50" height="50" relative="1" as="geometry">
            <mxPoint y="75" as="sourcePoint" />
            <mxPoint x="50" y="25" as="targetPoint" />
          </mxGeometry>
        </mxCell>
        <mxCell id="3nIxWyWOg-MX9_8f3n_Z-4" value="" style="group" parent="1" vertex="1" connectable="0">
          <mxGeometry x="480" y="185" width="100" height="50" as="geometry" />
        </mxCell>
        <mxCell id="3nIxWyWOg-MX9_8f3n_Z-5" value="" style="pointerEvents=1;verticalLabelPosition=bottom;shadow=0;dashed=0;align=center;html=1;verticalAlign=middle;shape=mxgraph.electrical.resistors.resistor_2;direction=south;strokeWidth=3;rotation=-90;" parent="3nIxWyWOg-MX9_8f3n_Z-4" vertex="1">
          <mxGeometry x="40" y="-25" width="20" height="100" as="geometry" />
        </mxCell>
        <mxCell id="3nIxWyWOg-MX9_8f3n_Z-6" value="" style="endArrow=block;html=1;rounded=0;verticalAlign=middle;strokeWidth=3;endFill=1;" parent="3nIxWyWOg-MX9_8f3n_Z-4" edge="1">
          <mxGeometry width="50" height="50" relative="1" as="geometry">
            <mxPoint x="25" y="50" as="sourcePoint" />
            <mxPoint x="75" as="targetPoint" />
          </mxGeometry>
        </mxCell>
        <mxCell id="3nIxWyWOg-MX9_8f3n_Z-7" value="" style="group" parent="1" vertex="1" connectable="0">
          <mxGeometry x="345" y="610" width="50" height="100" as="geometry" />
        </mxCell>
        <mxCell id="3nIxWyWOg-MX9_8f3n_Z-8" value="" style="pointerEvents=1;verticalLabelPosition=bottom;shadow=0;dashed=0;align=center;html=1;verticalAlign=middle;shape=mxgraph.electrical.resistors.resistor_2;direction=south;strokeWidth=3;" parent="3nIxWyWOg-MX9_8f3n_Z-7" vertex="1">
          <mxGeometry x="15" width="20" height="100" as="geometry" />
        </mxCell>
        <mxCell id="3nIxWyWOg-MX9_8f3n_Z-9" value="" style="endArrow=block;html=1;rounded=0;verticalAlign=middle;strokeWidth=3;endFill=1;" parent="3nIxWyWOg-MX9_8f3n_Z-7" edge="1">
          <mxGeometry width="50" height="50" relative="1" as="geometry">
            <mxPoint y="75" as="sourcePoint" />
            <mxPoint x="50" y="25" as="targetPoint" />
          </mxGeometry>
        </mxCell>
        <mxCell id="XIqC5FC4mVJbqVSxe_GK-114" value="&lt;font style=&quot;font-size: 20px;&quot;&gt;$$R_{bLo}$$&lt;/font&gt;" style="text;html=1;strokeColor=none;fillColor=none;align=center;verticalAlign=middle;whiteSpace=wrap;rounded=0;strokeWidth=3;" parent="1" vertex="1">
          <mxGeometry x="290" y="630" width="60" height="30" as="geometry" />
        </mxCell>
      </root>
    </mxGraphModel>
  </diagram>
</mxfile>
